<mxfile host="app.diagrams.net" modified="2022-02-01T20:50:31.717Z" agent="5.0 (Windows NT 10.0; Win64; x64) AppleWebKit/537.36 (KHTML, like Gecko) Chrome/97.0.4692.99 Safari/537.36" etag="zjrBMB-oP1-DsQPOiJlJ" version="16.5.2" type="github">
  <diagram id="oyaVwyODKysUpZntjgSl" name="Page-1">
    <mxGraphModel dx="868" dy="1550" grid="1" gridSize="10" guides="1" tooltips="1" connect="1" arrows="1" fold="1" page="1" pageScale="1" pageWidth="850" pageHeight="1100" math="0" shadow="0">
      <root>
        <mxCell id="0" />
        <mxCell id="1" parent="0" />
        <mxCell id="rJ3wLCzCDhaqYXCvar29-1" value="IntradayStrategy1" style="rounded=0;whiteSpace=wrap;html=1;" vertex="1" parent="1">
          <mxGeometry x="285" y="-50" width="210" height="60" as="geometry" />
        </mxCell>
        <mxCell id="rJ3wLCzCDhaqYXCvar29-2" value="" style="edgeStyle=orthogonalEdgeStyle;rounded=0;orthogonalLoop=1;jettySize=auto;html=1;" edge="1" parent="1" source="rJ3wLCzCDhaqYXCvar29-5" target="rJ3wLCzCDhaqYXCvar29-9">
          <mxGeometry relative="1" as="geometry" />
        </mxCell>
        <mxCell id="rJ3wLCzCDhaqYXCvar29-3" style="edgeStyle=orthogonalEdgeStyle;rounded=0;orthogonalLoop=1;jettySize=auto;html=1;" edge="1" parent="1" source="rJ3wLCzCDhaqYXCvar29-5" target="rJ3wLCzCDhaqYXCvar29-11">
          <mxGeometry relative="1" as="geometry" />
        </mxCell>
        <mxCell id="rJ3wLCzCDhaqYXCvar29-4" style="edgeStyle=orthogonalEdgeStyle;rounded=0;orthogonalLoop=1;jettySize=auto;html=1;exitX=0;exitY=0.25;exitDx=0;exitDy=0;entryX=0.419;entryY=-0.067;entryDx=0;entryDy=0;entryPerimeter=0;" edge="1" parent="1" source="rJ3wLCzCDhaqYXCvar29-5" target="rJ3wLCzCDhaqYXCvar29-7">
          <mxGeometry relative="1" as="geometry" />
        </mxCell>
        <mxCell id="rJ3wLCzCDhaqYXCvar29-5" value="&lt;br&gt;Look at all sectors to identify breakout at resistance/support levels" style="rounded=0;whiteSpace=wrap;html=1;" vertex="1" parent="1">
          <mxGeometry x="300" y="40" width="197.5" height="60" as="geometry" />
        </mxCell>
        <mxCell id="rJ3wLCzCDhaqYXCvar29-6" value="" style="edgeStyle=orthogonalEdgeStyle;rounded=0;orthogonalLoop=1;jettySize=auto;html=1;" edge="1" parent="1" source="rJ3wLCzCDhaqYXCvar29-7" target="rJ3wLCzCDhaqYXCvar29-16">
          <mxGeometry relative="1" as="geometry" />
        </mxCell>
        <mxCell id="rJ3wLCzCDhaqYXCvar29-7" value="If any index&amp;nbsp; is closed exactly at Resistance, we may get trade on either side&amp;nbsp;" style="rounded=0;whiteSpace=wrap;html=1;" vertex="1" parent="1">
          <mxGeometry x="30" y="130" width="160" height="60" as="geometry" />
        </mxCell>
        <mxCell id="rJ3wLCzCDhaqYXCvar29-8" value="" style="edgeStyle=orthogonalEdgeStyle;rounded=0;orthogonalLoop=1;jettySize=auto;html=1;" edge="1" parent="1" source="rJ3wLCzCDhaqYXCvar29-9" target="rJ3wLCzCDhaqYXCvar29-17">
          <mxGeometry relative="1" as="geometry" />
        </mxCell>
        <mxCell id="rJ3wLCzCDhaqYXCvar29-9" value="&lt;span style=&quot;color: rgb(0 , 0 , 0) ; font-family: &amp;#34;helvetica&amp;#34; ; font-size: 12px ; font-style: normal ; font-weight: 400 ; letter-spacing: normal ; text-align: center ; text-indent: 0px ; text-transform: none ; word-spacing: 0px ; background-color: rgb(248 , 249 , 250) ; display: inline ; float: none&quot;&gt;If any index&amp;nbsp; is closed exactly at support, we may get trade on either side&amp;nbsp;&lt;/span&gt;" style="rounded=0;whiteSpace=wrap;html=1;" vertex="1" parent="1">
          <mxGeometry x="220" y="130" width="160" height="60" as="geometry" />
        </mxCell>
        <mxCell id="rJ3wLCzCDhaqYXCvar29-10" value="" style="edgeStyle=orthogonalEdgeStyle;rounded=0;orthogonalLoop=1;jettySize=auto;html=1;" edge="1" parent="1" source="rJ3wLCzCDhaqYXCvar29-11" target="rJ3wLCzCDhaqYXCvar29-14">
          <mxGeometry relative="1" as="geometry" />
        </mxCell>
        <mxCell id="rJ3wLCzCDhaqYXCvar29-11" value="If any index is either breakup or breakdown , then we can consider this for Trading" style="rounded=0;whiteSpace=wrap;html=1;" vertex="1" parent="1">
          <mxGeometry x="460" y="140" width="320" height="60" as="geometry" />
        </mxCell>
        <mxCell id="rJ3wLCzCDhaqYXCvar29-12" value="" style="edgeStyle=orthogonalEdgeStyle;rounded=0;orthogonalLoop=1;jettySize=auto;html=1;" edge="1" parent="1" source="rJ3wLCzCDhaqYXCvar29-14" target="rJ3wLCzCDhaqYXCvar29-15">
          <mxGeometry relative="1" as="geometry" />
        </mxCell>
        <mxCell id="rJ3wLCzCDhaqYXCvar29-13" style="edgeStyle=orthogonalEdgeStyle;rounded=0;orthogonalLoop=1;jettySize=auto;html=1;entryX=0.063;entryY=0.333;entryDx=0;entryDy=0;entryPerimeter=0;" edge="1" parent="1" source="rJ3wLCzCDhaqYXCvar29-14" target="rJ3wLCzCDhaqYXCvar29-15">
          <mxGeometry relative="1" as="geometry" />
        </mxCell>
        <mxCell id="rJ3wLCzCDhaqYXCvar29-14" value="Check for 50 or 200 EMA&amp;nbsp;" style="whiteSpace=wrap;html=1;rounded=0;" vertex="1" parent="1">
          <mxGeometry x="460" y="220" width="320" height="40" as="geometry" />
        </mxCell>
        <mxCell id="rJ3wLCzCDhaqYXCvar29-15" value="Check for 4 -5 stocks of the sector and add it in watchlist" style="whiteSpace=wrap;html=1;rounded=0;" vertex="1" parent="1">
          <mxGeometry x="460" y="280" width="320" height="30" as="geometry" />
        </mxCell>
        <mxCell id="rJ3wLCzCDhaqYXCvar29-16" value="" style="whiteSpace=wrap;html=1;rounded=0;" vertex="1" parent="1">
          <mxGeometry x="50" y="240" width="120" height="60" as="geometry" />
        </mxCell>
        <mxCell id="rJ3wLCzCDhaqYXCvar29-17" value="" style="rounded=0;whiteSpace=wrap;html=1;" vertex="1" parent="1">
          <mxGeometry x="240" y="230" width="120" height="60" as="geometry" />
        </mxCell>
      </root>
    </mxGraphModel>
  </diagram>
</mxfile>
